name not saved
datacolumns 19
datarows 40
range 18 18.039
endheader
time	ground_force1_vx	ground_force1_vy	ground_force1_vz	ground_force1_px	ground_force1_py	ground_force1_pz	ground_force2_vx	ground_force2_vy	ground_force2_vz	ground_force2_px	ground_force2_py	ground_force2_pz	ground_torque1_x	ground_torque1_y	ground_torque1_z	ground_torque2_x	ground_torque2_y	ground_torque2_z
18	-2.56549792	437.7347664	-15.96969704	-0.1349793297	0	0.2402718732	4.037443234	364.219308	16.42020154	-0.2147624143	0	-0.2401657517	0	0.2610785308	0	0	0.9911335228	0
18.001	-2.597524393	437.6790454	-15.95560945	-0.1349386116	0	0.2402478662	4.036073077	364.3155403	16.39339893	-0.2147570888	0	-0.2401651976	0	0.2686051632	0	0	0.9900514979	0
18.002	-2.628447885	437.6228307	-15.94003472	-0.1348969672	0	0.2402241257	4.034770848	364.4125368	16.36575597	-0.2147513128	0	-0.240164534	0	0.276229565	0	0	0.9890754391	0
18.003	-2.658260272	437.5661953	-15.92297993	-0.1348544075	0	0.2402006622	4.033553967	364.5102156	16.33727543	-0.2147450906	0	-0.2401637593	0	0.2839503338	0	0	0.9882088558	0
18.004	-2.686954688	437.5092144	-15.90445366	-0.1348109446	0	0.240177486	4.032440133	364.6084967	16.3079613	-0.2147384271	0	-0.2401628723	0	0.2917659745	0	0	0.9874551137	0
18.005	-2.714525499	437.4519654	-15.88446592	-0.1347665916	0	0.2401546069	4.031447258	364.7073022	16.27781891	-0.2147313282	0	-0.2401618719	0	0.2996748983	0	0	0.986817427	0
18.006	-2.740968282	437.3945281	-15.86302812	-0.1347213624	0	0.2401320345	4.0305934	364.8065559	16.24685499	-0.2147238006	0	-0.2401607569	0	0.3076754201	0	0	0.9862988507	0
18.007	-2.7662798	437.336984	-15.84015304	-0.1346752723	0	0.2401097781	4.029896698	364.9061838	16.21507766	-0.2147158517	0	-0.2401595265	0	0.315765758	0	0	0.9859022738	0
18.008	-2.790457974	437.2794168	-15.81585477	-0.1346283375	0	0.2400878465	4.0293753	365.0061141	16.18249658	-0.2147074894	0	-0.2401581799	0	0.3239440306	0	0	0.9856304119	0
18.009	-2.813501851	437.221912	-15.7901487	-0.134580575	0	0.2400662486	4.029047298	365.1062771	16.1491229	-0.2146987228	0	-0.2401567166	0	0.3322082558	0	0	0.9854858011	0
18.01	-2.835411574	437.1645567	-15.76305144	-0.134532003	0	0.2400449926	4.028930659	365.2066052	16.11496938	-0.2146895613	0	-0.2401551361	0	0.3405563491	0	0	0.9854707923	0
18.011	-2.856188352	437.1074396	-15.73458084	-0.1344826408	0	0.2400240868	4.029043163	365.3070333	16.08005037	-0.2146800153	0	-0.2401534382	0	0.3489861213	0	0	0.9855875447	0
18.012	-2.875834419	437.0506512	-15.70475586	-0.1344325085	0	0.2400035388	4.029402327	365.4074982	16.0443819	-0.2146700957	0	-0.2401516228	0	0.3574952774	0	0	0.9858380211	0
18.013	-2.894353	436.9942828	-15.67359663	-0.1343816272	0	0.2399833564	4.03002535	365.5079394	16.00798167	-0.2146598141	0	-0.2401496899	0	0.3660814141	0	0	0.9862239832	0
18.014	-2.911748273	436.9384272	-15.64112432	-0.1343300191	0	0.2399635469	4.030929041	365.6082983	15.97086909	-0.2146491827	0	-0.2401476398	0	0.3747420187	0	0	0.9867469866	0
18.015	-2.92802533	436.8831783	-15.60736115	-0.1342777071	0	0.2399441175	4.032129761	365.708519	15.9330653	-0.2146382143	0	-0.2401454729	0	0.3834744671	0	0	0.987408377	0
18.016	-2.943190135	436.8286308	-15.57233034	-0.1342247154	0	0.2399250751	4.033643356	365.8085476	15.89459317	-0.2146269224	0	-0.2401431899	0	0.392276022	0	0	0.9882092868	0
18.017	-2.957249483	436.77488	-15.53605607	-0.1341710688	0	0.2399064264	4.035485102	365.9083326	15.85547735	-0.214615321	0	-0.2401407916	0	0.4011438313	0	0	0.9891506313	0
18.018	-2.970210956	436.7220221	-15.49856341	-0.1341167931	0	0.239888178	4.037669647	366.0078249	15.81574423	-0.2146034245	0	-0.2401382788	0	0.4100749266	0	0	0.9902331063	0
18.019	-2.982082884	436.6701536	-15.45987834	-0.1340619151	0	0.2398703361	4.040210949	366.1069774	15.77542198	-0.2145912479	0	-0.2401356529	0	0.4190662209	0	0	0.9914571853	0
18.02	-2.992874298	436.6193711	-15.42002766	-0.1340064624	0	0.2398529071	4.043122228	366.2057454	15.7345405	-0.2145788067	0	-0.2401329152	0	0.428114507	0	0	0.9928231176	0
18.021	-3.002594888	436.5697715	-15.37903898	-0.1339504633	0	0.2398358967	4.046415911	366.3040866	15.69313145	-0.2145661169	0	-0.2401300671	0	0.4372164558	0	0	0.9943309266	0
18.022	-3.011254959	436.5214516	-15.33694068	-0.1338939473	0	0.2398193109	4.050103585	366.4019606	15.65122821	-0.2145531946	0	-0.2401271106	0	0.4463686138	0	0	0.9959804082	0
18.023	-3.018865389	436.474508	-15.29376187	-0.1338369443	0	0.2398031553	4.054195948	366.4993292	15.60886587	-0.2145400567	0	-0.2401240474	0	0.4555674014	0	0	0.9977711303	0
18.024	-3.025437586	436.4290366	-15.24953235	-0.1337794852	0	0.2397874354	4.058702763	366.5961565	15.56608121	-0.2145267202	0	-0.2401208797	0	0.4648091101	0	0	0.9997024321	0
18.025	-3.030983446	436.385133	-15.20428263	-0.1337216018	0	0.2397721565	4.063632821	366.6924083	15.52291263	-0.2145132026	0	-0.2401176099	0	0.4740899002	0	0	1.001773424	0
18.026	-3.035515311	436.342892	-15.15804383	-0.1336633263	0	0.2397573238	4.068993899	366.7880528	15.47940016	-0.2144995214	0	-0.2401142404	0	0.483405798	0	0	1.003982986	0
18.027	-3.039045931	436.3024072	-15.11084769	-0.133604692	0	0.2397429422	4.074792726	366.8830598	15.4355854	-0.2144856946	0	-0.2401107739	0	0.4927526928	0	0	1.006329773	0
18.028	-3.041588424	436.2637712	-15.06272654	-0.1335457326	0	0.2397290167	4.081034948	366.9774013	15.39151146	-0.2144717405	0	-0.2401072133	0	0.5021263338	0	0	1.008812209	0
18.029	-3.043156238	436.2270754	-15.0137133	-0.1334864826	0	0.2397155519	4.087725098	367.0710509	15.34722293	-0.2144576774	0	-0.2401035617	0	0.5115223267	0	0	1.011428495	0
18.03	-3.043763116	436.1924094	-14.96384141	-0.1334269771	0	0.2397025523	4.094866571	367.1639841	15.30276579	-0.214443524	0	-0.2400998223	0	0.5209361299	0	0	1.014176605	0
18.031	-3.043423065	436.1598613	-14.91314484	-0.133367252	0	0.2396900223	4.102461601	367.2561781	15.25818741	-0.2144292989	0	-0.2400959985	0	0.530363051	0	0	1.017054292	0
18.032	-3.042150315	436.1295172	-14.86165807	-0.1333073434	0	0.239677966	4.110511235	367.3476118	15.21353641	-0.2144150209	0	-0.2400920939	0	0.539798243	0	0	1.020059087	0
18.033	-3.039959298	436.1014612	-14.80941606	-0.1332472883	0	0.2396663874	4.119015325	367.4382655	15.16886263	-0.2144007092	0	-0.2400881123	0	0.5492367001	0	0	1.023188306	0
18.034	-3.036864613	436.0757751	-14.75645426	-0.1331871241	0	0.2396552902	4.127972504	367.5281212	15.12421707	-0.2143863826	0	-0.2400840576	0	0.5586732539	0	0	1.026439048	0
18.035	-3.032881	436.0525382	-14.70280857	-0.1331268886	0	0.2396446781	4.137380184	367.6171622	15.07965178	-0.2143720603	0	-0.240079934	0	0.5681025693	0	0	1.029808203	0
18.036	-3.028023316	436.0318274	-14.64851536	-0.1330666201	0	0.2396345542	4.147234543	367.7053735	15.0352198	-0.2143577612	0	-0.2400757457	0	0.5775191409	0	0	1.033292454	0
18.037	-3.022306512	436.0137164	-14.59361141	-0.1330063574	0	0.2396249218	4.157530526	367.7927409	14.99097505	-0.2143435045	0	-0.2400714971	0	0.5869172889	0	0	1.03688828	0
18.038	-3.015745611	435.9982762	-14.53813396	-0.1329461395	0	0.2396157836	4.16826184	367.879252	14.94697228	-0.2143293092	0	-0.2400671929	0	0.5962911562	0	0	1.040591962	0
18.039	-3.008355689	435.9855745	-14.48212066	-0.132886006	0	0.2396071421	4.179420962	367.9648951	14.90326696	-0.2143151942	0	-0.2400628377	0	0.6056347046	0	0	1.044399591	0
